<svg fill="none" height="35" viewBox="0 0 35 35" width="35" xmlns="http://www.w3.org/2000/svg">
    <g clip-path="url(#clip0_2022_938)">
        <path
            d="M32.3566 32.4972H1.95155C1.65051 32.4972 1.5 32.3467 1.5 32.0457V5.26187C1.5 4.96093 1.65051 4.81042 1.95155 4.81042H32.3566C32.6576 4.81042 32.8082 4.96093 32.8082 5.26187V32.0457C32.6576 32.3467 32.5071 32.4972 32.3566 32.4972ZM2.2526 31.7448H31.9051V5.86374H2.2526V31.7448Z"
            fill="white" />
        <path
            d="M24.8304 7.97038C24.5294 7.97038 24.3789 7.81992 24.3789 7.51898V1.95152C24.3789 1.65057 24.5294 1.50012 24.8304 1.50012C25.1314 1.50012 25.2819 1.65057 25.2819 1.95152V7.51898C25.1314 7.81992 24.9809 7.97038 24.8304 7.97038Z"
            fill="white" />
        <path
            d="M9.17618 7.97038C8.87513 7.97038 8.72461 7.81992 8.72461 7.51898V1.95152C8.72461 1.65057 8.87513 1.50012 9.17618 1.50012C9.47722 1.50012 9.62774 1.65057 9.62774 1.95152V7.51898C9.62774 7.81992 9.32669 7.97038 9.17618 7.97038Z"
            fill="white" />
        <path
            d="M9.4767 24.5224V23.9204C9.62721 23.7699 9.92826 23.469 10.3798 23.168C10.8314 22.8671 10.9819 22.5662 11.2829 22.4157C11.4335 22.2652 11.7345 21.9643 12.0355 21.6634C12.3366 21.3624 12.6376 21.0615 12.7881 20.911C12.9386 20.7605 13.2397 20.4596 13.3902 20.1587C13.5407 19.8577 13.8418 19.7073 13.8418 19.4063C14.1428 18.8044 14.2934 18.353 14.2934 17.9016C14.2934 17.4501 14.1428 16.9987 13.8418 16.5473C13.5407 16.2464 13.0891 15.9454 12.3366 15.9454C11.7345 15.9454 11.1324 16.0959 10.8314 16.5473C10.5303 16.9987 10.2293 17.4501 10.2293 18.0521H9.32617C9.32617 17.1492 9.62721 16.3969 10.2293 15.9454C10.6808 15.494 11.4335 15.1931 12.186 15.1931C12.9386 15.1931 13.6913 15.494 14.1429 15.9454C14.5944 16.3969 14.8954 16.9987 14.8954 17.9016C14.8954 18.2026 14.7449 18.654 14.5944 19.1054C14.4439 19.5568 14.2934 19.8577 14.1429 20.1587C13.9923 20.4596 13.6913 20.7606 13.2397 21.212C12.9386 21.6634 12.6376 21.9643 12.3366 22.1147C12.186 22.2652 11.7345 22.5662 11.2829 23.0176C10.8314 23.3185 10.5303 23.6194 10.5303 23.7699H15.046V24.5224H9.4767Z"
            fill="white" />
        <path
            d="M18.8086 15.9455C19.4106 15.4941 20.0128 15.3435 20.9159 15.3435C21.6685 15.3435 22.4211 15.4941 22.8726 15.9455C23.3242 16.3969 23.6252 16.9987 23.6252 17.6006C23.6252 18.052 23.4747 18.5035 23.1737 18.9549C22.8726 19.4064 22.5716 19.5568 21.9695 19.7073C22.5716 19.8578 22.8726 20.1587 23.1737 20.6101C23.4747 21.0615 23.6252 21.6634 23.6252 22.2652C23.6252 23.0176 23.3242 23.469 22.8726 24.0709C22.4211 24.5223 21.6685 24.8232 20.7654 24.8232C19.8622 24.8232 19.1096 24.6728 18.6581 24.2214C18.056 23.77 17.755 23.1681 17.755 22.4157H18.5075C18.5075 22.8671 18.8086 23.3185 19.2601 23.6195C19.7117 23.9204 20.1633 24.0709 20.7654 24.0709C21.3675 24.0709 21.9695 23.9204 22.2706 23.6195C22.5716 23.3185 22.7221 22.8671 22.7221 22.2652C22.7221 21.5129 22.4211 21.0615 21.9695 20.7605C21.518 20.4596 20.7654 20.3092 19.8622 20.3092H19.5612V19.4063H19.8622C21.6685 19.4063 22.4211 18.8044 22.4211 17.7511C22.4211 17.2997 22.2706 16.8483 21.9695 16.5473C21.6685 16.2464 21.217 16.0959 20.6149 16.0959C20.0128 16.0959 19.5612 16.2464 19.1096 16.5473C18.8086 16.8483 18.5075 17.1492 18.5075 17.6006H17.6045C17.9055 16.8482 18.2065 16.2464 18.8086 15.9455Z"
            fill="white" />
        <path
            d="M32.3573 9.92639H2.25332C1.95228 9.92639 1.80176 9.7759 1.80176 9.47496C1.80176 9.17401 1.95228 9.02356 2.25332 9.02356H32.3573C32.6583 9.02356 32.8088 9.17401 32.8088 9.47496C32.6583 9.7759 32.5078 9.92639 32.3573 9.92639Z"
            fill="white" />
    </g>
    <defs>
        <clipPath id="clip0_2022_938">
            <rect fill="white" height="32" transform="translate(1.5 1.5)" width="32" />
        </clipPath>
    </defs>
</svg>
