<svg width="22" height="22" viewBox="0 0 22 22" fill="none" xmlns="http://www.w3.org/2000/svg">
<path d="M21.3165 14.5525C21.27 14.5525 21.2241 14.5607 21.1812 14.5767C21.1383 14.5926 21.0993 14.616 21.0665 14.6455C21.0337 14.675 21.0076 14.7101 20.9899 14.7486C20.9721 14.7871 20.963 14.8284 20.963 14.8702V18.5258C20.963 18.8706 20.6508 19.1511 20.2671 19.1511H10.0852V18.2173C10.0852 18.1219 10.0645 18.0001 9.99335 17.8663C10.4311 17.7221 10.7923 17.5458 11.0415 17.3382H11.7541C12.3214 17.3382 12.7828 16.9235 12.7828 16.4137C12.7828 15.904 12.3214 15.4893 11.7541 15.4893H11.4178V14.8778C11.4178 14.8707 11.4175 14.8634 11.4172 14.8562H11.7541C12.3214 14.8562 12.7828 14.4415 12.7828 13.9317C12.7828 13.422 12.3214 13.0073 11.7541 13.0073H10.8788C10.5591 13.0073 10.2729 13.1391 10.0841 13.3454C10.0846 13.3343 10.0853 13.3232 10.0853 13.3119V12.0374C10.2741 12.2429 10.5597 12.3741 10.8788 12.3741H11.754C12.3213 12.3741 12.7828 11.9594 12.7828 11.4497C12.7828 10.9399 12.3213 10.5252 11.754 10.5252H11.4177V9.28528H11.754C12.3213 9.28528 12.7828 8.87059 12.7828 8.36084C12.7828 7.85108 12.3213 7.43639 11.754 7.43639H10.8787C10.5988 7.43639 10.3333 7.54038 10.1418 7.7167C9.17071 7.36575 7.76826 7.18575 6.3751 7.18575C5.93269 7.18575 5.48939 7.20395 5.05918 7.23997V1.26062C5.05918 0.91581 5.37135 0.635285 5.75508 0.635285H8.61559C8.70934 0.635285 8.79925 0.601819 8.86554 0.54225C8.93183 0.48268 8.96907 0.401887 8.96907 0.317643C8.96907 0.233399 8.93183 0.152605 8.86554 0.0930354C8.79925 0.0334658 8.70934 0 8.61559 0L5.75508 0C4.98151 0 4.35221 0.565535 4.35221 1.26062V7.31725C2.66491 7.54669 1.3325 8.07422 1.3325 8.88036V10.3536C0.234557 10.735 0 11.2059 0 11.5382V13.3119C0 13.8368 0.564821 14.2435 1.42449 14.5268C1.35341 14.6605 1.33255 14.7822 1.33255 14.8778V16.6515C1.33255 16.7749 1.36387 16.8917 1.42279 17.0019C0.259284 17.3826 0 17.8643 0 18.2173V19.991C0 21.048 2.21694 21.5502 4.11539 21.6592C4.20894 21.6645 4.30102 21.6363 4.3714 21.5807C4.44177 21.525 4.48468 21.4465 4.49068 21.3625C4.49666 21.2784 4.46522 21.1956 4.40328 21.1324C4.34135 21.0691 4.25399 21.0306 4.16042 21.0252C1.7498 20.8868 0.706968 20.2734 0.706968 19.991V19.127C1.63488 19.6448 3.34569 19.9118 5.0426 19.9118C6.73951 19.9118 8.45031 19.6448 9.37823 19.127V19.991C9.37823 20.3077 8.15952 20.9274 5.73134 21.0351C5.68497 21.0371 5.63951 21.0474 5.59755 21.0652C5.55558 21.0831 5.51794 21.1082 5.48677 21.1391C5.45561 21.17 5.43152 21.2061 5.4159 21.2454C5.40027 21.2847 5.39341 21.3263 5.3957 21.368C5.39799 21.4097 5.40938 21.4505 5.42923 21.4882C5.44908 21.5259 5.47701 21.5598 5.5114 21.5878C5.5458 21.6158 5.58601 21.6374 5.62971 21.6515C5.67342 21.6655 5.71978 21.6717 5.76614 21.6696C7.91597 21.5743 10.0852 21.0182 10.0852 19.991V19.7865H20.2671C21.0407 19.7865 21.67 19.221 21.67 18.5259V14.8702C21.67 14.786 21.6328 14.7052 21.5665 14.6456C21.5002 14.586 21.4102 14.5525 21.3165 14.5525ZM11.4177 16.6515V16.1246H11.754V16.1246C11.8393 16.1247 11.9211 16.1552 11.9814 16.2094C12.0418 16.2636 12.0757 16.3371 12.0758 16.4137C12.0758 16.5732 11.9314 16.7029 11.754 16.7029H11.4159C11.4171 16.6859 11.4177 16.6687 11.4177 16.6515ZM10.8788 13.6426H11.754C11.8393 13.6427 11.9211 13.6732 11.9814 13.7274C12.0418 13.7816 12.0757 13.8551 12.0758 13.9317C12.0758 14.0911 11.9314 14.2209 11.754 14.2209H11.0798C10.9538 14.1084 10.7848 13.9957 10.5612 13.8871C10.5852 13.7489 10.7183 13.6426 10.8788 13.6426ZM10.7108 14.8777C10.7108 15.004 10.4728 15.2875 9.58109 15.5493C8.7299 15.7993 7.59136 15.9369 6.37514 15.9369C3.56979 15.9369 2.03952 15.2372 2.03952 14.8777C2.03942 14.8227 2.07884 14.765 2.12387 14.7168C2.98429 14.9086 4.01596 15.0064 5.04255 15.0064C6.79226 15.0064 8.55676 14.7225 9.46249 14.1726C10.4469 14.4405 10.7108 14.7488 10.7108 14.8777ZM11.7541 11.1606C11.9315 11.1606 12.0758 11.2903 12.0758 11.4497C12.0757 11.5264 12.0417 11.5999 11.9814 11.6541C11.9211 11.7083 11.8393 11.7388 11.754 11.7389H10.8788C10.827 11.7388 10.776 11.7275 10.7301 11.706C10.6842 11.6844 10.6448 11.6532 10.6152 11.6151C10.8765 11.4814 11.0837 11.3298 11.2222 11.1606H11.7541ZM10.8788 8.07185H11.754C11.8393 8.07192 11.9211 8.10241 11.9814 8.15661C12.0418 8.21082 12.0757 8.28431 12.0758 8.36096C12.0757 8.43761 12.0417 8.5111 11.9814 8.5653C11.9211 8.6195 11.8393 8.64999 11.754 8.65008H11.3794C11.3065 8.43401 11.1316 8.2411 10.8774 8.07189L10.8788 8.07185ZM3.16916 8.20877C4.02034 7.95884 5.15884 7.8212 6.3751 7.8212C9.18046 7.8212 10.7107 8.52091 10.7107 8.88041C10.7107 9.00666 10.4728 9.29019 9.58104 9.55201C8.72985 9.80193 7.59131 9.93957 6.3751 9.93957C3.56974 9.93957 2.03947 9.23987 2.03947 8.88041C2.03942 8.75411 2.27742 8.47058 3.16916 8.20877ZM2.03937 9.79012C2.96733 10.3079 4.67814 10.5749 6.37505 10.5749C8.07196 10.5749 9.78277 10.3079 10.7107 9.79012V10.6541C10.7107 10.7534 10.5633 10.95 10.0667 11.1567L10.0629 11.1583C9.92878 11.2139 9.76967 11.2703 9.58095 11.3257C8.72976 11.5756 7.59126 11.7133 6.375 11.7133C3.56969 11.7133 2.03937 11.0136 2.03937 10.6541V9.79012ZM1.42402 11.0068C1.89888 11.8892 4.14907 12.3486 6.3751 12.3486C6.95245 12.3486 7.53135 12.3176 8.08058 12.2564C7.24993 12.4763 6.172 12.5974 5.04264 12.5974C2.23729 12.5974 0.707015 11.8977 0.707015 11.5382C0.706968 11.4068 0.93121 11.2013 1.42402 11.0068ZM0.706968 13.3119V12.4479C1.63488 12.9657 3.34569 13.2326 5.0426 13.2326C6.64286 13.2326 8.41928 12.9834 9.37823 12.4488V13.3119C9.37823 13.4381 9.14028 13.7217 8.24854 13.9835C7.39735 14.2334 6.25886 14.371 5.0426 14.371C2.23724 14.3711 0.706968 13.6714 0.706968 13.3119ZM8.24854 18.8889C7.39735 19.1388 6.25886 19.2765 5.0426 19.2765C2.23724 19.2765 0.706968 18.5768 0.706968 18.2173C0.706968 18.0392 1.09837 17.746 1.95525 17.5122C2.86103 18.0621 4.62548 18.3459 6.3751 18.3459C7.40178 18.3459 8.43345 18.2482 9.29392 18.0563C9.33862 18.1042 9.37823 18.1621 9.37823 18.2173C9.37823 18.3435 9.14028 18.6271 8.24854 18.8889ZM9.58099 17.3231C8.72985 17.573 7.59131 17.7106 6.37505 17.7106C3.56974 17.7106 2.03942 17.0109 2.03942 16.6515V15.7875C2.96733 16.3052 4.67814 16.5722 6.37505 16.5722C8.07196 16.5722 9.78277 16.3052 10.7107 15.7875V16.6515C10.7107 16.7777 10.4728 17.0612 9.58099 17.3231ZM20.2671 0H10.2264C10.1327 0 10.0428 0.0334658 9.9765 0.0930354C9.9102 0.152605 9.87296 0.233399 9.87296 0.317643C9.87296 0.401887 9.9102 0.48268 9.9765 0.54225C10.0428 0.601819 10.1327 0.635285 10.2264 0.635285H20.2671C20.6509 0.635285 20.963 0.91581 20.963 1.26062V13.4226C20.963 13.4643 20.9722 13.5056 20.9899 13.5442C21.0077 13.5827 21.0337 13.6177 21.0666 13.6472C21.0994 13.6767 21.1383 13.7001 21.1812 13.7161C21.2241 13.732 21.2701 13.7402 21.3165 13.7402C21.3629 13.7402 21.4089 13.732 21.4518 13.7161C21.4947 13.7001 21.5337 13.6767 21.5665 13.6472C21.5993 13.6177 21.6253 13.5827 21.6431 13.5442C21.6609 13.5056 21.67 13.4643 21.67 13.4226V1.26062C21.67 0.565535 21.0407 0 20.2671 0Z" fill="black"/>
<path d="M19.6353 2.59548C19.6353 2.55376 19.6261 2.51245 19.6084 2.47391C19.5906 2.43537 19.5646 2.40035 19.5318 2.37086C19.4989 2.34136 19.46 2.31796 19.4171 2.302C19.3742 2.28604 19.3282 2.27783 19.2818 2.27783H6.7413C6.64755 2.27783 6.55764 2.3113 6.49135 2.37087C6.42506 2.43044 6.38782 2.51123 6.38782 2.59548V5.71778C6.38782 5.80202 6.42506 5.88281 6.49135 5.94238C6.55764 6.00195 6.64755 6.03542 6.7413 6.03542H19.2818C19.3283 6.03542 19.3742 6.02721 19.4171 6.01125C19.46 5.99529 19.499 5.97189 19.5318 5.9424C19.5646 5.9129 19.5907 5.87788 19.6084 5.83934C19.6262 5.8008 19.6353 5.75949 19.6353 5.71778V2.59548H19.6353ZM18.9283 5.40013H7.09479V2.91312H18.9283V5.40013ZM15.1439 7.43673H14.2686C13.7013 7.43673 13.2399 7.85142 13.2399 8.36118C13.2399 8.87093 13.7013 9.28562 14.2686 9.28562H15.1439C15.7111 9.28562 16.1726 8.87093 16.1726 8.36118C16.1726 7.85142 15.7111 7.43673 15.1439 7.43673ZM15.1439 8.65029H14.2686C14.0912 8.65029 13.9469 8.52061 13.9469 8.36118C13.9469 8.20174 14.0912 8.07206 14.2686 8.07206H15.1439C15.3213 8.07206 15.4656 8.20174 15.4656 8.36118C15.4656 8.52061 15.3213 8.65029 15.1439 8.65029ZM18.5332 7.43673H17.658C17.0907 7.43673 16.6292 7.85142 16.6292 8.36118C16.6292 8.87093 17.0907 9.28562 17.658 9.28562H18.5332C19.1005 9.28562 19.562 8.87093 19.562 8.36118C19.562 7.85142 19.1005 7.43673 18.5332 7.43673ZM18.5332 8.65029H17.658C17.4805 8.65029 17.3362 8.52061 17.3362 8.36118C17.3362 8.20174 17.4806 8.07206 17.658 8.07206H18.5332C18.7107 8.07206 18.855 8.20174 18.855 8.36118C18.855 8.52061 18.7107 8.65029 18.5332 8.65029ZM15.1439 10.5255H14.2686C13.7013 10.5255 13.2399 10.9402 13.2399 11.4499C13.2399 11.9597 13.7013 12.3744 14.2686 12.3744H15.1439C15.7111 12.3744 16.1726 11.9597 16.1726 11.4499C16.1726 10.9402 15.7111 10.5255 15.1439 10.5255ZM15.1439 11.7391H14.2686C14.1833 11.739 14.1015 11.7085 14.0412 11.6543C13.9809 11.6001 13.947 11.5266 13.9469 11.45C13.947 11.3733 13.9809 11.2998 14.0412 11.2456C14.1015 11.1914 14.1833 11.1609 14.2686 11.1608H15.1439C15.2292 11.1609 15.311 11.1914 15.3713 11.2456C15.4316 11.2998 15.4655 11.3733 15.4656 11.45C15.4656 11.6094 15.3213 11.7391 15.1439 11.7391ZM18.5332 10.5255H17.658C17.0907 10.5255 16.6292 10.9402 16.6292 11.4499C16.6292 11.9597 17.0907 12.3744 17.658 12.3744H18.5332C19.1005 12.3744 19.562 11.9597 19.562 11.4499C19.562 10.9402 19.1005 10.5255 18.5332 10.5255ZM18.5332 11.7391H17.658C17.5727 11.739 17.4909 11.7085 17.4306 11.6543C17.3702 11.6001 17.3363 11.5266 17.3362 11.45C17.3363 11.3733 17.3703 11.2998 17.4306 11.2456C17.4909 11.1914 17.5727 11.1609 17.658 11.1608H18.5332C18.6185 11.1609 18.7003 11.1914 18.7606 11.2456C18.821 11.2998 18.8549 11.3733 18.855 11.45C18.8549 11.5266 18.821 11.6001 18.7606 11.6543C18.7003 11.7085 18.6185 11.739 18.5332 11.7391ZM15.1439 13.0075H14.2686C13.7013 13.0075 13.2399 13.4222 13.2399 13.9319C13.2399 14.4417 13.7013 14.8564 14.2686 14.8564H15.1439C15.7111 14.8564 16.1726 14.4417 16.1726 13.9319C16.1726 13.4222 15.7111 13.0075 15.1439 13.0075ZM15.1439 14.2211H14.2686C14.1833 14.221 14.1015 14.1905 14.0412 14.1363C13.9809 14.0821 13.947 14.0086 13.9469 13.9319C13.947 13.8553 13.9809 13.7818 14.0412 13.7276C14.1015 13.6734 14.1833 13.6429 14.2686 13.6428H15.1439C15.2292 13.6429 15.311 13.6734 15.3713 13.7276C15.4316 13.7818 15.4655 13.8553 15.4656 13.9319C15.4656 14.0914 15.3213 14.2211 15.1439 14.2211ZM18.5332 13.0075H17.658C17.0907 13.0075 16.6292 13.4222 16.6292 13.9319C16.6292 14.4417 17.0907 14.8564 17.658 14.8564H18.5332C19.1005 14.8564 19.562 14.4417 19.562 13.9319C19.562 13.4222 19.1005 13.0075 18.5332 13.0075ZM18.5332 14.2211H17.658C17.5727 14.221 17.4909 14.1905 17.4306 14.1363C17.3703 14.0821 17.3363 14.0086 17.3362 13.9319C17.3363 13.8553 17.3703 13.7818 17.4306 13.7276C17.4909 13.6734 17.5727 13.6429 17.658 13.6428H18.5332C18.6185 13.6429 18.7003 13.6734 18.7606 13.7276C18.821 13.7818 18.8549 13.8553 18.855 13.9319C18.8549 14.0086 18.8209 14.0821 18.7606 14.1363C18.7003 14.1905 18.6185 14.221 18.5332 14.2211ZM15.1439 15.4895H14.2686C13.7013 15.4895 13.2399 15.9042 13.2399 16.414C13.2399 16.9237 13.7013 17.3384 14.2686 17.3384H15.1439C15.7111 17.3384 16.1726 16.9237 16.1726 16.414C16.1726 15.9042 15.7111 15.4895 15.1439 15.4895ZM15.1439 16.7031H14.2686C14.1833 16.703 14.1015 16.6725 14.0412 16.6183C13.9809 16.5641 13.947 16.4906 13.9469 16.4139C13.947 16.3373 13.9809 16.2638 14.0412 16.2096C14.1015 16.1554 14.1833 16.1249 14.2686 16.1248H15.1439C15.2292 16.1249 15.311 16.1554 15.3713 16.2096C15.4316 16.2638 15.4655 16.3373 15.4656 16.4139C15.4656 16.5733 15.3213 16.7031 15.1439 16.7031ZM18.5332 15.4895H17.658C17.0907 15.4895 16.6292 15.9042 16.6292 16.414C16.6292 16.9237 17.0907 17.3384 17.658 17.3384H18.5332C19.1005 17.3384 19.562 16.9237 19.562 16.414C19.562 15.9042 19.1005 15.4895 18.5332 15.4895ZM18.5332 16.7031H17.658C17.5727 16.703 17.4909 16.6725 17.4306 16.6183C17.3703 16.5641 17.3363 16.4906 17.3362 16.4139C17.3363 16.3373 17.3703 16.2638 17.4306 16.2096C17.4909 16.1554 17.5727 16.1249 17.658 16.1248H18.5332C18.6185 16.1249 18.7003 16.1554 18.7606 16.2096C18.821 16.2638 18.8549 16.3373 18.855 16.4139C18.8549 16.4906 18.8209 16.5641 18.7606 16.6183C18.7003 16.6725 18.6185 16.703 18.5332 16.7031ZM3.20787 6.2718H2.01266C1.96624 6.2718 1.92028 6.28002 1.87739 6.29598C1.8345 6.31194 1.79554 6.33534 1.76271 6.36483C1.72989 6.39433 1.70385 6.42935 1.68609 6.46789C1.66832 6.50642 1.65918 6.54773 1.65918 6.58944C1.65918 6.63116 1.66832 6.67246 1.68609 6.711C1.70385 6.74954 1.72989 6.78455 1.76271 6.81405C1.79554 6.84355 1.8345 6.86694 1.87739 6.88291C1.92028 6.89887 1.96624 6.90709 2.01266 6.90709H3.20787C3.25429 6.90709 3.30026 6.89887 3.34314 6.88291C3.38603 6.86694 3.425 6.84355 3.45782 6.81405C3.49065 6.78455 3.51668 6.74954 3.53445 6.711C3.55221 6.67246 3.56136 6.63116 3.56136 6.58944C3.56136 6.54773 3.55221 6.50642 3.53445 6.46789C3.51668 6.42935 3.49065 6.39433 3.45782 6.36483C3.425 6.33534 3.38603 6.31194 3.34314 6.29598C3.30026 6.28002 3.25429 6.2718 3.20787 6.2718ZM3.20787 5.28746H2.01266C1.91891 5.28746 1.829 5.32093 1.76271 5.3805C1.69642 5.44007 1.65918 5.52086 1.65918 5.60511C1.65918 5.68935 1.69642 5.77015 1.76271 5.82972C1.829 5.88929 1.91891 5.92275 2.01266 5.92275H3.20787C3.30162 5.92275 3.39153 5.88929 3.45782 5.82972C3.52411 5.77015 3.56136 5.68935 3.56136 5.60511C3.56136 5.52086 3.52411 5.44007 3.45782 5.3805C3.39153 5.32093 3.30162 5.28746 3.20787 5.28746ZM3.20552 4.19542C3.11177 4.19542 3.02186 4.22888 2.95556 4.28845C2.88927 4.34802 2.85203 4.42881 2.85203 4.51306C2.85203 4.5973 2.88927 4.6781 2.95556 4.73767C3.02186 4.79724 3.11177 4.8307 3.20552 4.8307H3.21023C3.40545 4.8307 3.56136 4.68849 3.56136 4.51306C3.56136 4.33762 3.40075 4.19542 3.20552 4.19542Z" fill="black"/>
</svg>
