<svg width="41" height="60" viewBox="0 0 41 60" fill="none" xmlns="http://www.w3.org/2000/svg">
<path d="M30.5912 26.2593C31.8703 27.4394 32.804 28.8561 33.5291 30.4221C34.4224 32.3514 34.8222 34.4007 34.8267 36.4971C34.8317 38.9019 34.2851 41.2127 33.1173 43.3433C31.061 47.0948 27.9962 49.5722 23.8352 50.6545C23.5229 50.7357 23.2119 50.8265 22.8952 50.885C22.5515 50.9486 22.3886 50.7918 22.3859 50.4321C22.3798 49.6064 22.3412 48.781 22.3399 47.9554C22.3338 44.1342 22.3397 40.313 22.3296 36.4918C22.3286 36.1125 22.4151 35.9352 22.8415 35.9513C24.1449 36.0003 23.9693 35.7577 23.9701 37.0828C23.9724 41.0821 23.9615 45.0815 23.958 49.0808C23.9575 49.6368 24.0103 49.6511 24.5929 49.4505C27.5978 48.4161 29.9919 46.5748 31.7907 43.9681C33.0266 42.1771 33.8066 40.206 34.1451 38.0393C34.4713 35.9513 34.3332 33.9127 33.7485 31.9016C33.1547 29.8594 32.1624 28.0254 30.7261 26.4433C30.6752 26.3873 30.6359 26.3208 30.5912 26.2593Z" fill="black"/>
<path d="M20.2658 50.9344C20.2069 50.7394 20.1056 50.5464 20.0964 50.349C20.0578 49.5243 20.029 48.6983 20.0286 47.8728C20.0254 40.8753 20.0294 33.8778 20.031 26.8802C20.031 26.575 20.0834 26.2635 19.6352 26.173C19.5451 26.1548 19.4719 25.8181 19.4714 25.6281C19.465 23.0851 19.4747 20.542 19.4768 17.9989C19.4792 15.0509 19.4788 12.1029 19.4772 9.15496C19.477 8.87514 19.4511 8.62134 19.8205 8.50192C19.9374 8.4641 20.0308 8.16607 20.0321 7.98644C20.0492 5.54068 20.0484 3.0948 20.0518 0.648932C20.0519 0.600356 20.0347 0.545316 20.052 0.504294C20.1235 0.333954 20.2052 0.167799 20.2832 0.00012207C20.3578 0.164213 20.4967 0.328031 20.4976 0.492502C20.5099 2.9869 20.5058 5.4814 20.5003 7.9759C20.4997 8.26616 20.4923 8.52072 20.8762 8.59483C20.9635 8.61167 21.0646 8.84645 21.0652 8.98142C21.0771 11.5244 21.0786 14.0676 21.065 16.6105C21.0643 16.7426 20.9314 16.9617 20.8225 16.9887C20.5171 17.0646 20.503 17.2573 20.5038 17.4992C20.5073 18.6492 20.5055 19.7992 20.5053 20.9492C20.5031 30.5221 20.5008 40.0951 20.4986 49.6679C20.4985 50.079 20.4986 50.49 20.4986 50.9011C20.421 50.9123 20.3434 50.9234 20.2658 50.9344Z" fill="black"/>
<path d="M21.4013 50.9268C21.355 50.7359 21.2797 50.5469 21.2676 50.3538C21.2269 49.7078 21.1854 49.0603 21.1855 48.4133C21.187 38.439 21.195 28.4647 21.201 18.4903C21.2016 17.5113 21.224 17.7039 22.023 17.6856C22.1686 17.6823 22.3351 17.639 22.4547 17.6945C22.5954 17.7598 22.7268 17.8954 22.8027 18.0333C22.8577 18.1333 22.817 18.2866 22.817 18.4161C22.8179 23.8081 22.8187 29.2001 22.8192 34.5922C22.8192 35.2458 22.8181 35.2682 22.1767 35.2672C21.7057 35.2665 21.6651 35.5331 21.6655 35.8973C21.6698 39.4918 21.6701 43.0864 21.6648 46.681C21.6631 47.8628 21.6465 49.0448 21.6256 50.2264C21.6215 50.4571 21.5659 50.6869 21.534 50.9171C21.4898 50.9204 21.4455 50.9236 21.4013 50.9268Z" fill="black"/>
<path d="M19.0544 50.6395C19.0148 50.4372 18.9441 50.2353 18.9407 50.0323C18.9156 48.5432 18.9039 47.0538 18.8887 45.5646C18.8874 45.4351 18.897 45.3053 18.8921 45.1761C18.8654 44.4783 18.8647 44.4517 18.1585 44.445C17.6936 44.4405 17.7423 44.1575 17.7428 43.862C17.7488 39.3443 17.7545 34.8266 17.7579 30.3089C17.7586 29.305 17.7619 28.3008 17.7401 27.2973C17.7319 26.9221 17.8667 26.7563 18.242 26.7802C19.5497 26.8636 19.3605 26.6463 19.3613 27.9052C19.3653 34.366 19.3682 40.8268 19.3678 47.2876C19.3678 48.1781 19.3521 49.0686 19.333 49.9589C19.3283 50.1777 19.2816 50.3956 19.2542 50.614C19.1875 50.6225 19.121 50.631 19.0544 50.6395Z" fill="black"/>
<path d="M18.0985 50.8785C17.1713 50.7002 16.3253 50.5448 15.4823 50.3742C13.5734 49.9876 11.9742 48.991 10.4973 47.7813C8.16415 45.8702 6.58763 43.4416 5.74403 40.5549C5.20319 38.7043 5.06311 36.8027 5.27512 34.8832C5.68182 31.2012 7.25595 28.1006 9.94752 25.5622C10.0054 25.5076 10.0697 25.4598 10.2025 25.4666C10.0712 25.6003 9.93573 25.7303 9.80957 25.8687C9.66824 26.0237 9.54268 26.1935 9.3976 26.3447C7.82049 27.9891 6.76514 29.9394 6.16578 32.1166C5.61558 34.1151 5.5356 36.1522 5.86139 38.2163C6.30422 41.0217 7.51806 43.4405 9.40586 45.5233C11.1675 47.4668 13.3112 48.845 15.8374 49.5943C16.6265 49.8283 16.6314 49.8099 16.6317 48.9854C16.632 47.8518 16.6433 46.7181 16.6282 45.5846C16.6233 45.2238 16.7533 45.1042 17.1099 45.1102C18.4247 45.1327 18.2266 44.9746 18.2213 46.21C18.2153 47.6021 18.1853 48.9942 18.1599 50.3862C18.1568 50.5584 18.1179 50.7299 18.0985 50.8785Z" fill="black"/>
<path d="M3.76905 58.9973C3.36556 58.9973 3.06683 59.0442 2.79445 58.9798C2.62949 58.9407 2.4554 58.7542 2.37309 58.59C2.19281 58.23 2.10337 57.8222 1.90489 57.475C1.81784 57.3228 1.55475 57.2713 1.37154 57.174C1.29161 57.327 1.1643 57.4735 1.1423 57.6344C1.10541 57.9043 1.1141 58.1856 1.14246 58.458C1.18398 58.8564 1.08889 59.0563 0.62775 59.0427C0.19905 59.03 -0.0136148 58.9519 0.000675159 58.4482C0.0364273 57.1866 0.0241479 55.9231 0.0056198 54.6606C0.000566675 54.3183 0.114288 54.1985 0.446979 54.2055C1.07775 54.2187 1.70944 54.194 2.34005 54.2109C2.92154 54.2264 3.3911 54.4677 3.57611 55.051C3.77204 55.6686 3.76552 56.286 3.21951 56.7425C2.94697 56.9703 2.95306 57.1786 3.08433 57.4592C3.30857 57.9385 3.51585 58.4258 3.76905 58.9973ZM1.70053 56.2876C2.32723 56.283 2.57472 56.1014 2.56978 55.6915C2.56527 55.3153 2.27784 55.1477 1.71189 55.119C1.22434 55.0943 1.12247 55.3188 1.11856 55.7602C1.11421 56.2574 1.36002 56.3362 1.70053 56.2876Z" fill="black"/>
<path d="M10.8285 53.9986C10.8285 54.551 10.8285 55.1025 10.8285 55.7718C11.0744 55.6167 11.2023 55.53 11.3357 55.4527C11.972 55.0842 12.6998 55.3522 12.7866 56.0777C12.8934 56.9715 12.8724 57.8825 12.8571 58.7852C12.8558 58.863 12.4888 58.9644 12.2821 59.0007C12.0578 59.0402 11.8639 58.9777 11.8697 58.6747C11.8809 58.0924 11.8781 57.5098 11.8834 56.9273C11.8867 56.566 11.8519 56.1967 11.3934 56.1814C10.9196 56.1655 10.8227 56.5347 10.8155 56.9175C10.8053 57.4511 10.7974 57.9859 10.8226 58.5187C10.8383 58.8507 10.7848 59.0522 10.3903 59.0282C10.0682 59.0087 9.79555 59.0307 9.80544 58.5519C9.83271 57.2256 9.8131 55.8983 9.81266 54.5714C9.81245 53.9243 9.81315 53.9234 10.4585 53.9527C10.554 53.9571 10.6489 53.9758 10.8285 53.9986Z" fill="black"/>
<path d="M17.1362 56.3295C17.2287 55.6259 17.8753 55.195 18.7223 55.2764C19.7815 55.3783 20.2367 55.7137 20.1853 56.8331C20.1712 57.1396 20.1607 57.45 20.1954 57.7533C20.2154 57.9281 20.3393 58.0886 20.3979 58.2618C20.4647 58.4594 20.5739 58.6752 20.5406 58.8608C20.5229 58.9595 20.2456 59.0608 20.0802 59.0705C19.899 59.0812 19.6533 59.0453 19.5384 58.9286C19.2395 58.6248 19.0036 58.7073 18.6937 58.904C18.2572 59.1809 17.5757 59.144 17.283 58.8425C16.9239 58.4728 16.8946 57.9823 17.1286 57.5843C17.2933 57.3041 17.6567 57.1073 17.9718 56.96C18.2083 56.8495 18.5154 56.9007 18.779 56.8331C18.9188 56.7972 19.1519 56.6264 19.1374 56.5773C19.0844 56.3979 18.978 56.1639 18.829 56.1024C18.6677 56.0359 18.3744 56.0696 18.2475 56.1822C17.8962 56.4941 17.5403 56.3977 17.1362 56.3295ZM19.1701 57.5885C19.0907 57.5352 18.9564 57.3761 18.8041 57.3565C18.4183 57.3068 17.9741 57.6227 18.0398 57.9064C18.0811 58.0846 18.2992 58.313 18.4739 58.3503C18.859 58.4324 19.1568 58.1244 19.1701 57.5885Z" fill="black"/>
<path d="M33.7375 55.2778C34.907 55.329 35.5291 55.6449 35.4496 56.7646C35.4268 57.0865 35.4273 57.4142 35.4618 57.7344C35.4809 57.9117 35.6032 58.0756 35.6598 58.2518C35.7274 58.4623 35.8425 58.6937 35.8017 58.8877C35.7812 58.9852 35.4624 59.0233 35.276 59.0801C35.2332 59.0932 35.1659 59.0906 35.1342 59.0651C34.6324 58.662 34.168 58.8196 33.6171 59.0309C32.9861 59.2728 32.4769 58.9267 32.3464 58.3527C32.19 57.6646 32.5194 57.1222 33.2079 56.9679C33.4907 56.9045 33.7882 56.9049 34.0692 56.8363C34.2162 56.8004 34.3421 56.6779 34.4776 56.5946C34.3607 56.4208 34.2779 56.1587 34.1178 56.0969C33.9436 56.0297 33.6966 56.1441 33.4837 56.19C33.4452 56.1983 33.4178 56.2891 33.3851 56.2892C33.0832 56.2902 32.7814 56.2797 32.4795 56.2725C32.606 56.0348 32.6749 55.7077 32.8726 55.5801C33.1704 55.388 33.5582 55.3353 33.7375 55.2778ZM33.6379 58.3819C34.1844 58.3693 34.5179 58.0642 34.4659 57.7023C34.4466 57.568 34.2292 57.3757 34.0871 57.3617C33.6783 57.3216 33.2668 57.6261 33.3258 57.9146C33.3664 58.1134 33.5657 58.2799 33.6379 58.3819Z" fill="black"/>
<path d="M40.3526 57.8101C40.2388 58.6022 39.8092 59.0013 39.0566 59.0674C38.1109 59.1506 37.4173 58.7836 37.1614 58.0529C36.9499 57.4487 36.9657 56.8431 37.1983 56.2476C37.4373 55.6355 37.9663 55.3038 38.6923 55.2975C39.4461 55.2908 39.9319 55.5898 40.1933 56.2212C40.1995 56.2361 40.2057 56.2511 40.2116 56.2661C40.593 57.2442 40.5109 57.3649 39.4761 57.3455C39.1525 57.3394 38.8288 57.3265 38.5052 57.327C38.0809 57.3277 37.9591 57.5043 38.0958 57.9042C38.262 58.3903 38.9465 58.5649 39.2233 58.1396C39.532 57.6652 39.9098 57.777 40.3526 57.8101ZM38.5683 56.922C38.8938 56.7575 39.3288 57.0369 39.317 56.5351C39.3084 56.1689 39.0226 56.0071 38.6838 56.0149C38.3343 56.0229 38.0805 56.2487 38.0955 56.5817C38.1014 56.7113 38.427 56.8264 38.5683 56.922Z" fill="black"/>
<path d="M8.45234 57.8164C8.24973 58.1721 8.14296 58.501 7.92399 58.7151C7.44531 59.183 6.43061 59.2098 5.77636 58.836C5.17363 58.4916 4.87473 57.6225 5.0504 56.7253C5.22144 55.8517 5.6365 55.422 6.41724 55.3102C7.52436 55.1517 8.36323 55.8907 8.36193 57.0043C8.3616 57.286 8.24832 57.3778 7.98626 57.3667C7.46905 57.3449 6.95135 57.3211 6.43386 57.3222C6.01043 57.3232 5.89573 57.5188 6.0545 57.9138C6.25233 58.406 6.94091 58.5555 7.23823 58.1158C7.5424 57.6656 7.90715 57.7879 8.45234 57.8164ZM6.62963 56.9867C6.88615 56.8273 7.25752 56.7166 7.27871 56.5588C7.32495 56.2145 7.03529 56.0278 6.67766 56.0292C6.33905 56.0306 5.94241 56.3619 6.04178 56.6091C6.1046 56.7654 6.38056 56.8361 6.62963 56.9867Z" fill="black"/>
<path d="M29.8927 58.4814C29.7247 58.6277 29.6111 58.7364 29.4876 58.8324C28.8604 59.3204 27.9686 59.0637 27.8693 58.292C27.7548 57.4007 27.7715 56.4878 27.7924 55.5857C27.8017 55.1842 28.1895 55.383 28.4144 55.35C28.6671 55.3129 28.8151 55.4225 28.8085 55.7014C28.7977 56.1536 28.7933 56.6061 28.7903 57.0585C28.789 57.2523 28.7897 57.4467 28.8043 57.6397C28.8267 57.9333 28.9154 58.2069 29.2657 58.2148C29.6178 58.2227 29.7858 57.973 29.8259 57.6581C29.8603 57.3872 29.846 57.1099 29.8488 56.8354C29.8518 56.5283 29.8787 56.2178 29.8432 55.9149C29.7857 55.4257 29.9965 55.2964 30.4497 55.3354C30.7505 55.3612 30.8811 55.4487 30.8759 55.7689C30.8605 56.7061 30.8786 57.6438 30.8601 58.5809C30.8573 58.7212 30.7178 58.9809 30.6595 58.9759C30.4499 58.9581 30.2432 58.8608 30.0463 58.7699C29.9907 58.7443 29.9725 58.6379 29.8927 58.4814Z" fill="black"/>
<path d="M22.0098 57.418C22.0098 57.1434 22.0364 56.8651 21.9993 56.5956C21.9788 56.4465 21.8824 56.2749 21.7663 56.1782C21.4524 55.9168 21.48 55.5526 21.8332 55.3491C21.9522 55.2806 22.0504 55.1374 22.1059 55.0062C22.1805 54.8301 22.1559 54.5948 22.2644 54.4552C22.3682 54.3217 22.5824 54.2418 22.7597 54.215C22.8216 54.2057 22.9763 54.4194 22.9881 54.5411C23.0266 54.9381 22.8773 55.4199 23.5478 55.4333C23.5912 55.4341 23.6695 55.7397 23.6539 55.8958C23.6442 55.9926 23.4908 56.1466 23.3968 56.1505C23.0655 56.1642 22.9886 56.3374 22.9969 56.6236C23.0069 56.9626 23.0004 57.3023 22.9966 57.6416C22.9929 57.9739 23.061 58.2312 23.4431 58.3462C23.5542 58.3797 23.6515 58.6364 23.6527 58.7917C23.6535 58.888 23.4746 59.0474 23.354 59.073C22.4693 59.2605 22.0332 58.8998 22.0226 57.9999C22.0203 57.8059 22.0223 57.612 22.0223 57.4181C22.0181 57.418 22.014 57.418 22.0098 57.418Z" fill="black"/>
<path d="M15.5308 56.4834C15.5304 57.1932 15.5181 57.9034 15.5358 58.6128C15.544 58.9421 15.4009 59.0489 15.1016 59.02C14.8273 58.9936 14.5034 59.0822 14.5089 58.6062C14.5253 57.1867 14.5247 55.7666 14.5093 54.3471C14.5047 53.9143 14.7717 53.9537 15.0532 53.9466C15.3439 53.9394 15.5501 53.9715 15.5377 54.354C15.5149 55.0631 15.5312 55.7735 15.5308 56.4834Z" fill="black"/>
<path d="M26.1482 57.1663C26.1482 57.6358 26.1324 58.106 26.1534 58.5746C26.1689 58.9211 26.021 59.039 25.6947 59.0199C25.4134 59.0034 25.1377 59.0356 25.1452 58.6075C25.1618 57.6526 25.1577 56.6972 25.1488 55.7421C25.145 55.3333 25.4256 55.3834 25.6824 55.3722C25.9559 55.3603 26.1605 55.407 26.1492 55.7579C26.1342 56.2269 26.1455 56.6968 26.1455 57.1663C26.1464 57.1663 26.1473 57.1663 26.1482 57.1663Z" fill="black"/>
<path d="M25.5833 54.7435C25.2789 54.7846 25.1354 54.6577 25.1413 54.3104C25.149 53.8561 25.4671 53.9692 25.7234 53.9455C26.0266 53.9175 26.157 54.0305 26.1605 54.3542C26.1653 54.7892 25.8877 54.7543 25.5833 54.7435Z" fill="black"/>
</svg>
