<svg fill="none" height="35" viewBox="0 0 35 35" width="35" xmlns="http://www.w3.org/2000/svg">
    <g clip-path="url(#clip0_2022_937)">
        <path
            d="M34.1442 18.6998C34.029 18.6998 33.9139 18.6998 33.7987 18.5846L17.3312 2.12245L0.863688 18.5846C0.633373 18.8149 0.403051 18.8149 0.172736 18.5846C-0.0575788 18.3544 -0.0575788 18.1242 0.172736 17.894L16.9858 1.08634C17.1009 0.97122 17.4464 0.97122 17.6767 1.08634L34.4896 17.894C34.72 18.1242 34.72 18.3544 34.4896 18.5846C34.3745 18.5846 34.2593 18.6998 34.1442 18.6998Z"
            fill="white" />
        <path
            d="M29.538 34.2411H21.477C21.2467 34.2411 21.0164 34.0108 21.0164 33.7806V22.1534H13.5311V33.7806C13.5311 34.0108 13.3008 34.2411 13.0705 34.2411H5.00949C4.77917 34.2411 4.54883 34.0108 4.54883 33.7806V14.095C4.54883 13.8648 4.77917 13.6345 5.00949 13.6345C5.23981 13.6345 5.47011 13.8648 5.47011 14.095V33.3201H12.6098V21.6929C12.6098 21.4627 12.8402 21.2324 13.0705 21.2324H21.3618C21.5921 21.2324 21.8224 21.4627 21.8224 21.6929V33.3201H28.9623V14.095C28.9623 13.8648 29.1926 13.6345 29.4229 13.6345C29.6532 13.6345 29.8835 13.8648 29.8835 14.095V33.7806C29.9986 34.0108 29.8835 34.2411 29.538 34.2411Z"
            fill="white" />
    </g>
    <defs>
        <clipPath id="clip0_2022_937">
            <rect fill="white" height="33.25" transform="translate(0 1)" width="35" />
        </clipPath>
    </defs>
</svg>
