<svg fill="none" height="22" viewBox="0 0 22 22" width="22" xmlns="http://www.w3.org/2000/svg">
    <path
        d="M5.52168 21.67H5.4175C5.31331 21.67 5.20913 21.5648 5.20913 21.3544V16.7259H0.312543C0.104178 16.7259 0 16.6207 0 16.4103V0.31557C0 0.105181 0.104178 0 0.312543 0H21.3574C21.5658 0 21.67 0.105181 21.67 0.31557V16.4103C21.67 16.6207 21.5658 16.7259 21.3574 16.7259H10.9392L5.73005 21.5648C5.73005 21.67 5.62586 21.67 5.52168 21.67ZM0.625094 16.1999H5.52168C5.73004 16.1999 5.83423 16.3051 5.83423 16.5155V20.7232L10.6266 16.3051C10.7308 16.3051 10.7308 16.1999 10.835 16.1999H21.0449V0.63114H0.520913V16.1999H0.625094Z"
        fill="#232020" />
</svg>
