<svg fill="none" height="23" viewBox="0 0 22 23" width="22" xmlns="http://www.w3.org/2000/svg">
    <path
        d="M4.85644 22.6436H4.77412C4.69181 22.5602 4.60949 22.4769 4.60949 22.3935V18.3096H0.329269C0.164644 18.3096 0 18.1429 0 17.9762V3.474C0 3.30731 0.164644 3.14062 0.329269 3.14062H18.9318C19.0964 3.14062 19.2611 3.30731 19.2611 3.474V17.9762C19.2611 18.1429 19.0964 18.3096 18.9318 18.3096H9.63053L5.02105 22.5602C4.93873 22.6435 4.93875 22.6436 4.85644 22.6436ZM0.493878 17.6428H4.77412C4.93874 17.6428 5.10336 17.8095 5.10336 17.9762V21.6434L9.30129 17.7262C9.3836 17.6428 9.4659 17.6428 9.4659 17.6428H18.4379V3.72406H0.411561V17.6428H0.493878Z"
        fill="#232020" />
    <path
        d="M21.4013 16.726H18.7673C18.6027 16.726 18.4381 16.5593 18.4381 16.3926C18.4381 16.2259 18.6027 16.0592 18.7673 16.0592H21.072V1.64042H3.04569V3.39066C3.04569 3.55735 2.88107 3.72406 2.71645 3.72406C2.55183 3.72406 2.38721 3.55735 2.38721 3.39066V1.30701C2.38721 1.14032 2.55183 0.973633 2.71645 0.973633H21.319C21.4836 0.973633 21.6482 1.14032 21.6482 1.30701V16.3093C21.7306 16.5593 21.5659 16.726 21.4013 16.726Z"
        fill="#232020" />
    <path
        d="M16.7916 21.0597C16.7093 21.0597 16.6269 21.0597 16.6269 20.9764L13.5814 18.1426C13.4991 18.0593 13.4167 17.8092 13.5814 17.7259C13.6637 17.6425 13.9106 17.5592 13.9929 17.7259L16.5446 20.0596V17.9759C16.5446 17.8092 16.7092 17.6425 16.8739 17.6425C17.0385 17.6425 17.2031 17.8092 17.2031 17.9759V20.8097C17.2031 20.893 17.1208 21.0597 17.0385 21.0597C16.8739 21.0597 16.8739 21.0597 16.7916 21.0597Z"
        fill="#232020" />
    <path
        d="M16.0507 7.80716H2.79851C2.63388 7.80716 2.46924 7.64063 2.46924 7.47409C2.46924 7.30755 2.63388 7.14099 2.79851 7.14099H16.0507C16.2154 7.14099 16.38 7.30755 16.38 7.47409C16.38 7.64063 16.2154 7.80716 16.0507 7.80716Z"
        fill="#232020" />
    <path
        d="M16.0507 10.5581H2.79851C2.63388 10.5581 2.46924 10.3916 2.46924 10.225C2.46924 10.0585 2.63388 9.89197 2.79851 9.89197H16.0507C16.2154 9.89197 16.38 10.0585 16.38 10.225C16.38 10.3916 16.2154 10.5581 16.0507 10.5581Z"
        fill="#232020" />
    <path
        d="M8.149 13.2248H2.881C2.71638 13.2248 2.55176 13.0582 2.55176 12.8917C2.55176 12.7252 2.71638 12.5586 2.881 12.5586H8.149C8.31362 12.5586 8.47824 12.7252 8.47824 12.8917C8.47824 13.0582 8.31362 13.2248 8.149 13.2248Z"
        fill="#232020" />
</svg>
