<svg fill="none" height="23" viewBox="0 0 22 23" width="22" xmlns="http://www.w3.org/2000/svg">
    <path
        d="M21.3005 22.3396H0.48779C0.162592 22.3396 0 22.2354 0 22.0271V3.27338C0 3.06501 0.162592 2.96082 0.48779 2.96082H13.0079C13.3331 2.96082 13.4957 3.06501 13.4957 3.27338C13.4957 3.48175 13.3331 3.58594 13.0079 3.58594H0.812996V21.8187H20.8127V3.58594H16.9103C16.5851 3.58594 16.4225 3.48175 16.4225 3.27338C16.4225 3.06501 16.5851 2.96082 16.9103 2.96082H21.1379C21.4631 2.96082 21.6257 3.06501 21.6257 3.27338V22.0271C21.7883 22.2354 21.4631 22.3396 21.3005 22.3396Z"
        fill="#232020" />
    <path
        d="M16.9107 6.08764H12.8457C12.5205 6.08764 12.3579 5.98347 12.3579 5.77509V0.982486C12.3579 0.774112 12.5205 0.669922 12.8457 0.669922H16.9107C17.2359 0.669922 17.3985 0.774112 17.3985 0.982486V5.77509C17.3985 5.98347 17.2359 6.08764 16.9107 6.08764ZM13.3335 5.56671H16.4229V1.29505H13.3335V5.56671Z"
        fill="#232020" />
    <path
        d="M16.9103 9.318H4.55273C4.22753 9.318 4.06494 9.21381 4.06494 9.00544C4.06494 8.79706 4.22753 8.69287 4.55273 8.69287H16.9103C17.2355 8.69287 17.3981 8.79706 17.3981 9.00544C17.3981 9.10962 17.2355 9.318 16.9103 9.318Z"
        fill="#232020" />
    <path
        d="M16.9103 14.318H4.55273C4.22753 14.318 4.06494 14.2138 4.06494 14.0054C4.06494 13.7971 4.22753 13.6929 4.55273 13.6929H16.9103C17.2355 13.6929 17.3981 13.7971 17.3981 14.0054C17.3981 14.2138 17.2355 14.318 16.9103 14.318Z"
        fill="#232020" />
    <path
        d="M16.9103 19.7357H4.55273C4.22753 19.7357 4.06494 19.6315 4.06494 19.4232C4.06494 19.2148 4.22753 19.1106 4.55273 19.1106H16.9103C17.2355 19.1106 17.3981 19.2148 17.3981 19.4232C17.3981 19.6315 17.2355 19.7357 16.9103 19.7357Z"
        fill="#232020" />
</svg>
