<svg width="35" height="35" viewBox="0 0 35 35" fill="none" xmlns="http://www.w3.org/2000/svg">
<g clip-path="url(#clip0_2022_935)">
<path d="M21.8988 32.5974H8.83361V26.378C8.83361 21.4023 12.8776 17.2042 18.0103 17.2042C21.4321 17.2042 24.5428 19.07 26.0983 22.1798C26.2538 22.3353 26.4093 22.4907 26.7203 22.3353C26.876 22.1798 27.0315 22.0243 26.876 21.7133C25.6316 19.07 23.2986 17.2042 20.4989 16.5822C23.4541 15.4938 25.4761 12.6951 25.4761 9.27436C25.4761 4.92071 21.8988 1.5 17.6992 1.5C13.3442 1.5 9.92236 5.0762 9.92236 9.27436C9.92236 12.6951 12.0999 15.4938 15.0551 16.5822C10.8556 17.8262 7.90039 21.7133 7.90039 26.2225V32.9084C7.90039 33.2194 8.05592 33.3749 8.367 33.3749H21.7432C22.0543 33.3749 22.2098 33.2194 22.2098 32.9084C22.2098 32.5974 22.0543 32.5974 21.8988 32.5974ZM10.8556 9.42983C10.8556 5.54266 13.9663 2.58841 17.6992 2.58841C21.5876 2.58841 24.5428 5.69814 24.5428 9.42983C24.5428 13.1615 21.4321 16.2713 17.6992 16.2713C13.9663 16.4267 10.8556 13.317 10.8556 9.42983Z" fill="white"/>
</g>
<defs>
<clipPath id="clip0_2022_935">
<rect width="19.2" height="32" fill="white" transform="translate(7.90039 1.5)"/>
</clipPath>
</defs>
</svg>
