<svg width="29" height="39" viewBox="0 0 29 39" fill="none" xmlns="http://www.w3.org/2000/svg">
<path d="M14.2142 27.0254C14.0826 27.0254 14.0826 27.0254 13.951 27.0254L7.897 24.5256C7.76539 24.3941 7.63379 24.2625 7.63379 23.9993C7.63379 23.7362 7.76539 23.6047 7.897 23.4731L13.951 20.9733C14.0826 20.9733 14.2142 20.9733 14.3458 20.9733L20.3998 23.4731C20.5314 23.6047 20.663 23.7362 20.663 23.9993C20.663 24.2625 20.5314 24.3941 20.3998 24.5256L14.3458 27.0254H14.2142ZM9.4763 23.9993L14.2142 25.9728L18.9521 23.9993L14.2142 22.0258L9.4763 23.9993Z" fill="white"/>
<path d="M14.0831 24.131C13.8198 24.131 13.5566 23.8679 13.5566 23.6047V19.1315C13.5566 18.8684 13.8198 18.6052 14.0831 18.6052C14.3463 18.6052 14.6095 18.8684 14.6095 19.1315V23.6047C14.4779 23.8679 14.3463 24.131 14.0831 24.131Z" fill="white"/>
<path d="M14.4769 9.13232C14.3453 9.13232 14.2137 9.13232 14.0821 9.13232C6.31721 9.39546 0 15.7106 0 23.6046C0 23.7362 0 23.9993 0 24.1309C0 24.1309 0 24.1309 0 24.2624C0.394826 31.8933 6.71204 38.0769 14.4769 38.0769C22.5051 38.0769 28.9539 31.6301 28.9539 23.6046C28.9539 15.5791 22.3735 9.13232 14.4769 9.13232ZM14.4769 37.0243V33.7352C14.4769 33.4721 14.2137 33.2089 13.9505 33.2089C13.6873 33.2089 13.4241 33.4721 13.4241 33.7352V37.0243C6.84364 36.6296 1.44769 31.2354 0.921256 24.6571H4.21147C4.47469 24.6571 4.73792 24.394 4.73792 24.1309C4.73792 23.8678 4.47469 23.6046 4.21147 23.6046H0.921256C0.921256 23.6046 0.921256 23.6046 0.921256 23.4731C0.921256 16.3685 6.44881 10.5796 13.4241 10.0533V13.8688C13.4241 14.1319 13.6873 14.395 13.9505 14.395C14.2137 14.395 14.4769 14.1319 14.4769 13.8688V9.92177C21.847 9.92177 27.901 15.9737 27.901 23.3414C27.901 23.3414 27.901 23.3415 27.901 23.4731H23.9528C23.6895 23.4731 23.5579 23.7361 23.5579 23.9993C23.5579 24.2624 23.6895 24.5256 23.9528 24.5256H27.901C27.243 31.4986 21.5838 37.0243 14.4769 37.0243Z" fill="white"/>
<path d="M16.7145 5.84324C16.5829 5.84324 16.4513 5.84327 16.3197 5.7117L12.5031 1.89626V5.18541C12.5031 5.44854 12.2399 5.7117 11.9766 5.7117C11.7134 5.7117 11.4502 5.44854 11.4502 5.18541V0.580597C11.4502 0.317465 11.5818 0.185947 11.7134 0.054381C11.845 -0.077185 12.1082 0.0543489 12.2399 0.185915L16.0565 4.00136V0.580597C16.0565 0.317465 16.3197 0.054381 16.5829 0.054381C16.8462 0.054381 17.1094 0.317465 17.1094 0.580597V5.18541C17.1094 5.44854 16.9778 5.58014 16.8462 5.7117C16.8462 5.84327 16.8461 5.84324 16.7145 5.84324Z" fill="white"/>
</svg>
